<svg id="Capa_1" enable-background="new 0 0 512 512" height="512" viewBox="0 0 512 512" width="512" xmlns="http://www.w3.org/2000/svg"><path d="m417.279 349.71h-322.444c-14.888 0-27-12.112-27-27v-189.137c0-53.8 43.769-97.568 97.567-97.568h181.308c53.8 0 97.568 43.768 97.568 97.568v189.137c.001 14.888-12.111 27-26.999 27z" fill="#f5997a"/><path d="m346.711 36.005h-92.362v313.705h162.931c14.888 0 27-12.112 27-27v-189.137c-.001-53.8-43.769-97.568-97.569-97.568z" fill="#b45d4a"/><path d="m154.484 202.86h-.271c-8.284 0-15-6.716-15-15s6.716-15 15-15h.271c8.284 0 15 6.716 15 15 0 8.285-6.715 15-15 15z" fill="#94443f"/><path d="m354.484 202.86h-.272c-8.284 0-15-6.716-15-15s6.716-15 15-15h.272c8.284 0 15 6.716 15 15 0 8.285-6.715 15-15 15z" fill="#452123"/><path d="m304.484 132.86h-.272c-8.284 0-15-6.716-15-15s6.716-15 15-15h.272c8.284 0 15 6.716 15 15 0 8.285-6.715 15-15 15z" fill="#452123"/><path d="m204.484 132.86h-.271c-8.284 0-15-6.716-15-15s6.716-15 15-15h.271c8.284 0 15 6.716 15 15 0 8.285-6.715 15-15 15z" fill="#94443f"/><path d="m254.484 202.86h-.271c-8.284 0-15-6.716-15-15s6.716-15 15-15h.271c8.284 0 15 6.716 15 15 0 8.285-6.715 15-15 15z" fill="#94443f"/><path d="m254.484 172.86h-.136v30h.136c8.284 0 15-6.716 15-15s-6.715-15-15-15z" fill="#452123"/><path d="m417.279 349.71h-322.444c-14.888 0-27-12.112-27-27 0-43.119 35.079-78.198 78.198-78.198h220.048c43.118 0 78.198 35.079 78.198 78.198 0 14.888-12.112 27-27 27z" fill="#94443f"/><path d="m366.081 244.512h-111.732v105.198h162.931c14.888 0 27-12.112 27-27-.001-43.119-35.081-78.198-78.199-78.198z" fill="#452123"/><path d="m70.765 416.133h-43.765c-14.888 0-27-12.112-27-27v-156.988c0-26.954 21.929-48.883 48.882-48.883s48.882 21.929 48.882 48.883v156.987c.001 14.889-12.112 27.001-26.999 27.001z" fill="#b45d4a"/><g fill="#94443f"><path d="m485 416.133h-43.765c-14.888 0-27-12.112-27-27v-156.988c0-26.954 21.929-48.883 48.883-48.883 26.953 0 48.882 21.929 48.882 48.883v156.987c0 14.889-12.112 27.001-27 27.001z"/><path d="m186.685 475.995h-111.426c-8.284 0-15-6.716-15-15v-59.862c0-8.284 6.716-15 15-15h111.427c8.284 0 15 6.716 15 15v59.862c-.001 8.284-6.716 15-15.001 15z"/><path d="m437 475.995h-111.427c-8.284 0-15-6.716-15-15v-59.862c0-8.284 6.716-15 15-15h111.427c8.284 0 15 6.716 15 15v59.862c0 8.284-6.716 15-15 15z"/></g><path d="m485 416.133h-458c-14.888 0-27-12.112-27-27v-42.423c0-14.888 12.112-27 27-27h458c14.888 0 27 12.112 27 27v42.423c0 14.888-12.112 27-27 27z" fill="#f5997a"/><path d="m485 319.71h-230.651v96.423h230.651c14.888 0 27-12.112 27-27v-42.423c0-14.888-12.112-27-27-27z" fill="#b45d4a"/></svg>